<?xml version="1.0" encoding="utf-8"?>
<!-- Generator: Adobe Illustrator 27.8.1, SVG Export Plug-In . SVG Version: 6.00 Build 0)  -->
<svg version="1.1" id="Layer_1" xmlns="http://www.w3.org/2000/svg" xmlns:xlink="http://www.w3.org/1999/xlink" x="0px" y="0px"
	 viewBox="0 0 1352.84 1137.22" style="enable-background:new 0 0 1352.84 1137.22;" xml:space="preserve">
<style type="text/css">
	.st0{clip-path:url(#SVGID_00000034089498801393013670000015923740401382846112_);}
	.st1{clip-path:url(#SVGID_00000021823535016110668950000002077318007039323532_);fill:#8E8E8E;}
	.st2{clip-path:url(#SVGID_00000153682669125440110630000006761955536858126748_);fill:#FFFFFF;}
	.st3{clip-path:url(#SVGID_00000041297266738617921770000001286799514417150377_);fill:#006FFF;}
	.st4{clip-path:url(#SVGID_00000133510443103318020200000016268866012454975896_);}
	.st5{clip-path:url(#SVGID_00000157998258016495970000000009984365398907002809_);fill:#BFBFBF;}
	.st6{clip-path:url(#SVGID_00000019644713625980507720000014414482915124385939_);fill:#002F63;}
	.st7{clip-path:url(#SVGID_00000140012282502806895600000003766159848757900185_);}
	.st8{clip-path:url(#SVGID_00000093151190935316341430000008738071707229097645_);}
	.st9{font-family:'AvenirNextCondensed-MediumItalic';}
	.st10{font-size:96.4374px;}
	.st11{letter-spacing:-4;}
	.st12{clip-path:url(#SVGID_00000106122730797830828880000005103173387496411066_);}
	.st13{fill:#EA4D3D;stroke:#EA4D3D;stroke-width:10;stroke-miterlimit:10;}
	.st14{font-family:'Zapfino';}
	.st15{font-size:160.4324px;}
	.st16{letter-spacing:-9;}
	.st17{clip-path:url(#SVGID_00000070836703824102293580000008061962488490113939_);}
	.st18{clip-path:url(#SVGID_00000120544157189809535820000000061038942806858393_);}
	.st19{font-family:'AvenirNextCondensed-DemiBold';}
	.st20{font-family:'AvenirNextCondensed-Regular';}
</style>
<g>
	<defs>
		
			<rect id="SVGID_1_" x="290" y="266.1" transform="matrix(0.0266 -0.9996 0.9996 0.0266 8.8469 1111.0699)" width="569.9" height="569.79"/>
	</defs>
	<clipPath id="SVGID_00000001647684938583663930000006765824186396000670_">
		<use xlink:href="#SVGID_1_"  style="overflow:visible;"/>
	</clipPath>
	<g style="clip-path:url(#SVGID_00000001647684938583663930000006765824186396000670_);">
		<defs>
			<rect id="SVGID_00000152243188238270235350000008308182911490967958_" width="1352.84" height="1137.22"/>
		</defs>
		<clipPath id="SVGID_00000083075153133724256980000012698691473635950213_">
			<use xlink:href="#SVGID_00000152243188238270235350000008308182911490967958_"  style="overflow:visible;"/>
		</clipPath>
		<path style="clip-path:url(#SVGID_00000083075153133724256980000012698691473635950213_);fill:#8E8E8E;" d="M578.42,420.36
			c72.14,1.92,129.08,61.98,127.16,134.11c-1.92,72.14-61.98,129.08-134.11,127.16c-72.14-1.92-129.08-61.97-127.16-134.11
			C446.23,475.38,506.28,418.44,578.42,420.36z M637.08,268.65c-2.8-0.43-4.67,0.8-6.68,4.3c-8.2,14.25-17.07,28.16-25.57,42.23
			c-3.15,5.21-6.61,7.69-13.58,6.83c-12.16-1.51-24.57-1.74-36.79,0.04c-5.52,0.8-8.6-0.68-11.48-5.45
			c-8.82-14.64-18.33-28.84-27.2-43.46c-2.49-4.1-4.5-4.68-8.84-2.81c-28.29,12.16-56.67,24.21-85.18,35.85
			c-5.21,2.13-5.26,4.49-4.06,9.17c4.18,16.25,7.64,32.66,11.83,48.91c1.36,5.28,0.64,8.72-3.83,12.19
			c-9.99,7.75-19.04,16.7-26.63,26.76c-4.03,5.35-8.11,5.71-13.61,4.43c-16.02-3.72-32.14-7.06-48.07-11.13
			c-5.14-1.32-7.38-0.27-9.31,4.54c-11.32,28.29-22.82,56.53-34.47,84.68c-1.96,4.73-1.28,7.13,3.38,9.81
			c14.25,8.2,28.1,17.08,42.19,25.57c5.25,3.17,7.59,6.65,6.65,13.62c-1.64,12.15-1.32,24.58,0.4,36.8
			c0.78,5.55-0.96,8.58-5.67,11.43c-14.63,8.84-28.88,18.34-43.5,27.2c-4.15,2.51-4.52,4.6-2.68,8.89
			c12.15,28.29,24.17,56.63,35.81,85.13c2.14,5.23,4.49,5.26,9.17,4.06c16.25-4.18,32.65-7.87,48.99-11.7
			c2.43-0.57,4.88-0.88,7.4-1.31c1.17,1.45,2.13,2.7,3.14,3.9c8.36,9.92,17.45,19.21,27.73,27.01c5.55,4.22,6.44,8.4,5.03,14.38
			c-3.77,16.01-7.11,32.1-11.17,48.03c-1.3,5.1-0.31,7.41,4.54,9.35c28.29,11.32,56.53,22.81,84.68,34.47
			c4.72,1.95,7.12,1.34,9.81-3.33c8.2-14.25,17.05-28.12,25.57-42.19c3.13-5.16,6.51-7.85,13.54-6.92
			c11.83,1.57,24.05,2.04,35.85,0.02c7.21-1.23,10.21,1.85,13.39,7.01c8.64,14.01,17.74,27.76,26.27,41.83
			c2.47,4.07,4.45,4.7,8.84,2.81c28.28-12.17,56.63-24.16,85.13-35.81c5.15-2.1,5.37-4.43,4.15-9.16
			c-4.19-16.25-7.65-32.66-11.83-48.91c-1.35-5.25-0.71-8.71,3.79-12.19c10-7.74,19.05-16.68,26.67-26.71
			c3.99-5.26,7.95-5.83,13.52-4.52c16.01,3.76,32.14,7.07,48.07,11.13c5.1,1.3,7.41,0.36,9.35-4.5
			c11.32-28.29,22.82-56.53,34.47-84.68c1.94-4.7,1.35-7.15-3.33-9.85c-14.25-8.2-28.12-17.02-42.19-25.53
			c-5.2-3.15-7.66-6.6-6.69-13.62c1.67-12.14,1.31-24.58-0.4-36.8c-0.77-5.53,0.93-8.57,5.67-11.43
			c14.64-8.83,28.84-18.34,43.46-27.2c4.11-2.49,4.63-4.55,2.77-8.89c-12.16-28.29-24.17-56.63-35.81-85.13
			c-2.13-5.21-4.49-5.26-9.17-4.06c-16.56,4.25-33.31,7.86-49.89,12.03c-4.56,1.15-7.49,0.4-10.47-3.47
			c-7.71-10.05-16.96-18.8-26.94-26.45c-5.49-4.21-6.46-8.36-5.03-14.38c3.78-16,7.1-32.1,11.17-48.03c1.31-5.11,0.3-7.41-4.54-9.35
			c-28.29-11.32-56.53-22.82-84.68-34.47C639.03,269.13,638.02,268.79,637.08,268.65z"/>
	</g>
</g>
<g>
	<defs>
		<rect id="SVGID_00000060720191532211518700000015542770867014819972_" x="367.96" y="344" width="413.98" height="413.98"/>
	</defs>
	<clipPath id="SVGID_00000043441324023485731220000016607913329779482814_">
		<use xlink:href="#SVGID_00000060720191532211518700000015542770867014819972_"  style="overflow:visible;"/>
	</clipPath>
	
		<circle style="clip-path:url(#SVGID_00000043441324023485731220000016607913329779482814_);fill:#FFFFFF;" cx="574.95" cy="550.99" r="205.99"/>
</g>
<g>
	<defs>
		<rect id="SVGID_00000003796053908483134820000014433057917883270287_" x="367.85" y="344.11" width="414.2" height="413.76"/>
	</defs>
	<clipPath id="SVGID_00000015320590401484010750000016190220338333152440_">
		<use xlink:href="#SVGID_00000003796053908483134820000014433057917883270287_"  style="overflow:visible;"/>
	</clipPath>
	<path style="clip-path:url(#SVGID_00000015320590401484010750000016190220338333152440_);fill:#006FFF;" d="M650.86,726.52
		l-1.19,0.99l-0.26,0.87l-1.99,1.51l-1.35,0.29l0.32,0.42l-1.12,0.96l-2.86,1.6l-2.05,1.22l-1.44,0.45l-1.25,0.55l-1.89,0.74
		l-1.64,0.45l-0.64,0.87l-1.32,0.93l-0.03,0.93l0.42,0.51l0.58,0.29l-0.51,0.67l-1.8,1.12l-0.16,0.29l-1.51,0.51l-0.87,0.77
		l0.03,0.51l0.8,0.35l-0.16,0.58l0.61,0.16l2.31-0.39l1.64-0.32l2.89-1.03l2.6-0.9l1.99-1.25l1.86-1.51l2.79-2.31l2.18-1.89
		l1.73-1.67l0.55-1.03l0.96-0.58l0.45-0.58l-0.32-0.71l0.71-0.58l0.87,0.35l0.67-0.55l0.48-0.74l-0.64-0.29l-0.13-1.41l-0.58-0.64
		l-0.71-0.29L650.86,726.52z M667.52,718.3l-1.32,0.26l-2.76,1.93l0.93,0.22l0.99-0.06l0.48-0.03l0.58-0.93l1.38-1.28L667.52,718.3z
		 M738.53,629.03l-1.7,0.32l-0.26,4.75l0.9,2.82l1.28,0.67l1.76-2.57l0.77-1.6l-0.06-2.7l-1.41-1.19L738.53,629.03z M545.03,620.66
		l-0.74,1.06l-0.8,1.03l-1.35,0.03l1.16,0.77l1.25,0.32l1.03-0.83l0.22-1.48L545.03,620.66z M548.69,618.73l-0.55,1.12l-0.74,1.8
		l0.45-0.35l0.99-0.8l0.83-1.35L548.69,618.73z M565.47,618.09l-0.58,1.38l3.56,0.8l-0.06,0.55l4.24-0.19l0.38-0.96l-1.6,0.39
		l0.06-0.61l-2.15-0.29l-2.28,0.13L565.47,618.09z M597.08,617.22l-2.57,1.28l-2.09,0.13l-0.35,0.83l-0.22,0.03l-1.38,0.26
		l0.77,1.28l1.44,0.32l2.92-1.64l-0.1-0.26l-0.29-0.61L597.08,617.22z M534.83,605.93l-0.67,1.64l3.59,2.47l1.38,0.64l1.99,1.64
		l0.8-1.64l-0.29-1.09l1.35-2.5l-2.12-0.06l-2.86-0.16L534.83,605.93z M527.87,593.41l-1.51,0.71l-1.38-0.55l0.16,2.09l-0.77,4.04
		l0.83,1.19l1.28-0.83l1.19,0.51l1.25-4.36L527.87,593.41z M529.63,587.44l-1.89,0.87l-0.77,1.12l0.06,2.44l1.03,0.99l1.38-2.41
		L529.63,587.44z M636.78,568l1.09,1.89l0.71,3.4l-2.15,0.29l-1.76,1.25l0.67,2.47l-2.37,0.51l0.39,1.06l1.57,0.39l1.96,2.6
		l3.11,0.06l0.83,0.99l-0.16,1.6l0.39,0.74l1.41,1.83l-0.51-2.5l1.64-1.6l1.32,1.57l2.41,1.22l-1.8,1.93l-2.54,0.13l0.29,2.98
		l1.7-0.48l0.06,2.5l2.28,0.29l0.67,3.53l1.19,2.09l-0.03,0.83l-3.79,2.47l-3.85,0.83l-2.25-0.99l-2.66,0.19l-1.44-2.15l-0.48-1.6
		l0.74-1.09l0.16-1.32l-0.22-2.7l1.99-0.99l-1.03-0.61l-1.22,0.22l-1.89-1.93l-1.76-1.32l-3.72-3.11l-0.35-2.34l-2.98-2.53
		l1.44-4.24l2.12-1.25l0.48-2.37l1.93-1.41l2.15-2.41l2.15,0.1L636.78,568z M777.96,561.39l-0.26,0.13v3.75l-0.06,2.28v1.54
		l0.32-2.15v-1.6l0.16-1.51l-0.16-0.48V561.39z M776.68,559.34l-0.16,0.71l0.06,1.25l0.64,2.41l-0.03-3.08l-0.26-0.9L776.68,559.34z
		 M779.79,558.82c-0.02,0.55-0.07,1.09-0.1,1.64l-0.03,0.19L779.79,558.82z M777.07,549.36l-0.22,1.54l0.32,4.94l0.35,3.59
		l0.19-0.74l-0.06-2.73l-0.29-1.19l-0.16-2.09L777.07,549.36z M546.12,543.61l-3.08,0.51l-0.06,1.51l1.6,2.47l1.8-2.6L546.12,543.61
		z M774.69,537.23l0.1,1.64l0.39,3.88l0.26,2.98l-0.13,3.43l0.22,2.92l0.13,0.1l0.16-0.96l0.19-2.5l-0.22-3.66l0.06-0.83l-0.32-2.95
		l-0.39-2.05l-0.13-1.16L774.69,537.23z M779.31,535.01c0.02,0.27,0.04,0.53,0.06,0.8l-0.03-0.13L779.31,535.01z M508.39,533.18
		l-2.05,0.74l-3.63,1.06l-0.83,3.72l-3.21,2.37l2.28,1.99l4.17-0.03l2.79-2.12l0.83-2.44l2.02-1.67l-0.87-2.98L508.39,533.18z
		 M776.55,527.21l0.16,1.76l0.45,1.6l0.19-0.32l-0.58-3.02L776.55,527.21z M766.67,526.96l-0.26,1.51l-0.13,3.56l0.29,2.28l0.99,1.7
		l0.74-1.6l-0.16-3.37l-0.58-1.83l-0.35-2.09L766.67,526.96z M518.37,524.33l-2.57,1.93l-2.28,2.98v2.09l-1.44,3.11l1.67-1.03
		l0.13,1.19l-1.32,1.09v1.09l1.89,1.64l0.29,2.63l-1.09,1.76l-2.6-1.6l-1.35,1.93l0.22,2.25l-2.41,0.03l-0.06,1.54l2.76,2.02
		l-2.02-0.13l-4.4,1.93l0.74,1.19l1.93-0.55l1.67,1.28l1.96-0.9l0.64,1.06l3.79,0.61l2.66,1.19l2.47-1.03l-0.16-2.05l1.35-0.58
		l1.03-2.05l-2.12-1.57l-0.03-1.54l0.32-4.27l-1.03-1.09l0.06-4.97l-1.7-1.06l2.86-2.21l1.64-2.44l-1.83-0.87l-1.89-0.39l3.43-2.63
		l-2.09-0.67L518.37,524.33z M776.01,519.74l0.74,3.47l0.48,3.11l0.39,3.34l0.42,2.82l-0.61-5.74l-0.45-2.89l-0.45-3.02
		L776.01,519.74z M774.24,517.24l-0.45,0.55l0.77,1.54l0.67,2.21l0.42,1.76l0.48,1.89l-0.06-1.8l-0.9-3.63L774.24,517.24z
		 M769.46,510.79l-0.16,0.99l0.29,2.89l0.39-1.32l-0.06-1.25l-0.1-1.32H769.46z M774.76,506.93l0.93,3.98l-0.51-1.76l0.26,1.7
		l0.45,1.51l0.26,1.28l0.19,0.96l-0.42-1.51l-0.03,0.45l-0.26-1.54l-0.45-2.15l-0.29-0.87l0.22,1.8l-0.03,1.12l0.29,0.48l0.39,1.22
		l0.16,0.42l0.06,1.57l0.35,1.28l0.1,1.67l-0.29-0.1l0.19,1.03l0.29-0.13l0.16-1.73l-0.19-2.21l-0.13-0.83l0.1-0.22l-0.29-1.51
		l-0.48-2.12l-0.35-1.67L774.76,506.93z M774.15,503.21c0.14,0.57,0.32,1.13,0.45,1.7l-0.13-0.22l-0.19-0.58L774.15,503.21z
		 M380.9,501.35l-0.48,0.96l-0.1,1.57l-0.13,2.09l0.22,0.26l0.26-0.9l0.19-1.57l0.19-2.28L380.9,501.35z M379.07,499.07l-0.58,1.09
		c-0.67,3.91-1.25,7.42-0.22,11.62c0.77,3.15,0.77,2.57,0.77,2.57c0,0,0.58,3.07,1.19,2.21l0.58-3.56l0.61-2.82l-0.51-0.06
		l0.26-3.34l-0.55-0.61l-0.99,0.9l-0.71-0.06l0.16-1.51l0.48-0.13l0.58-2.57l-0.26-0.03l0.13-2.34l-0.42,0.67l-0.19-0.77l-0.42-0.26
		L379.07,499.07z M511.05,485.72l-2.28,1.03l1.41,2.57l-0.67,0.8l-2.21-1.19l0.96,3.37l-2.09,0.19l2.18,3.53l1.09,1.67l1.38,0.29
		l4.81,0.61l3.14-1.09l0.19-2.89l1.67-1.64l-1.6-1.51l-2.92,0.13l-0.61-1.83l-2.82,0.13l0.16-3.18L511.05,485.72z M384.53,481.2
		l-0.29,0.32l-0.71,2.02l-0.1,0.93l-0.45,1.83l-0.19,1.16l-0.51,2.15l-0.35,0.64l-0.29,0.99l0.55-0.13v0.64l-0.35,0.87l-0.1,0.96
		l0.13,0.16l-0.16,0.99l-0.13,1.19l-0.42,1.73l0.32,0.26l0.58-2.02l0.22-1.28l0.32-0.48l0.19-1.44l0.48-1.16l0.1-0.67l0.55-2.09
		l0.39-2.15l-0.13-0.03l0.64-2.63l0.42-1.73l-0.19-0.13l-0.58,1.99l-0.42,0.64l-0.77,2.02l-0.03-0.58l0.55-2.21L384.53,481.2z
		 M387.29,471.16l-0.13,0.06l-0.9,2.15l-0.64,1.8l-0.06,0.55l-0.55,1.86l0.42-0.93l0.67-1.86l0.67-1.96l0.22-0.67L387.29,471.16z
		 M439.3,469.62l-0.67,1.25l-1.03-0.67l-0.77,0.74l0.32,3.88l0.42,2.02l-0.32,2.28l-1.44-0.61l0.1,1.25l2.66,0.8l-0.26,0.77
		l-2.18,0.99l-0.22,1.64l0.29,0.83l2.44-0.74l1.48-1.7l1.35-1.16l-0.71-1.06l2.05-0.64l0.45-2.41l-0.8-0.48l0.45-2.12l1.06,0.1
		l0.39-1.6l-1.09-0.71l2.57-0.13h1.89l0.8-0.1v-0.9l-1.19-1.03l-1.73-0.29l-4.56,0.48L439.3,469.62z M572.12,468.78l-1.54,0.55
		l0.32,1.09l-0.61,0.8l1.28,0.87l1.8-1.25l-1.03-0.8L572.12,468.78z M605.68,464.48l-0.9,1.19l-0.32,1.73l-1.93,1.86l-1.22,3.14
		l-0.83,2.41l0.96,1.28l-0.67,3.56l1.03,0.03l-0.55,3.4l0.83,1.73l-0.71,1.06l0.93,1.67l2.25,0.1l0.96,1.28l3.63-1.09l0.45-0.55
		l-3.31-1.64l-1.54-2.47l-0.16-3.63l-0.45-3.53l0.64-4.11l1.25-2.66l1.28-2.95l-0.29-1.12L605.68,464.48z M566.57,462.94l-2.02,0.74
		l-0.26,2.6l0.61,2.98l0.87,1.16l-0.96,1.03l1.22,2.28l0.99,0.03l0.87-2.66l0.77-0.55l0.77-2.34l1.93-1.12l-1.86-2.63l-0.58-1.25
		l-0.93-0.03l-0.48,1.06l-0.9-0.13L566.57,462.94z M434.3,461.95l-0.9,0.96l-1.12,3.18l0.19,0.67l1.06,0.42l-0.1-1.86l0.35-1.64
		l1.28-1.38L434.3,461.95z M741.93,461.88l-0.1,1.25l0.55,2.12l1.03,1.44l0.22,0.99l1.03,1.86l0.93,1.76l1.03,1.28l1.67,1.38
		l1.16,0.83l-0.06-0.9l-1.73-1.89l-1.03-1.51l-0.16-1.41l-0.29-0.42l-0.32,0.93l-1.09-1.57l-0.48-1.41l-1.03-2.15l0.35-0.99
		l-1.22-1.48L741.93,461.88z M572.69,461.63l-0.67,0.9l-0.77-0.83l-1.96,0.67l0.42,1.57l0.9,0.16v0.9l1.86,0.71l1.93-0.32l0.93-1.76
		l-1.16-1.12L572.69,461.63z M395.89,460.34l-0.71,0.42l-0.74,1.41l-1.03,1.54l-0.13,0.58l0.8-0.93l1.51-2.18L395.89,460.34z
		 M587.81,458.71l-0.29,0.67v0.83l-0.45-0.8l-0.8,0.29l-0.87,0.87l1.28-0.26l0.03,1.06l0.93,0.55l0.45-0.71l-0.13-0.55l0.39-0.39
		l0.55-0.67v-0.51L587.81,458.71z M398.33,458.61l-0.16,0.16l-0.96,1.73l-0.8,0.77l-0.35,0.64l0.96-0.64L398.33,458.61z
		 M442.7,457.58l-1.35,2.41l-0.83,2.89l0.06,0.93l0.51-0.32l1.09-2.53l0.71-2.79L442.7,457.58z M398.97,455.98l-0.64,0.71
		l-0.67,2.53l0.42-0.45l0.61-1.73L398.97,455.98z M398.52,448.05l-0.64,1.22l-0.45,1.09h0.13l-0.48,1.03l-0.13,1.03l-1.16,2.6
		l0.1-0.58l-0.64,1.19l-1.54,3.63l-0.58,1.09l-1.22,2.86l-0.48,1.41l-0.9,1.57l-0.67,1.38l-0.64,1.8l-0.64,1.54l-0.1-0.87
		l-1.06,3.66l-0.61,1.99l-0.42,1.73l-0.32,1.57l0.22-0.06l0.99-2.76l0.58-2.02l0.29-0.29l0.71-1.93l0.26-0.87l1.06-2.37l1.51-3.24
		l0.61-1.32l0.67-2.25l0.87-1.6l1.38-2.95l0.8-2.05l1.03-2.31l0.1-0.45l0.74-1.76l0.32-0.99l0.26-0.83h-0.19L398.52,448.05z
		 M606.36,443.17l-2.05,0.16l0.29,1.22l1.57,2.18l0.99-0.29l2.5,0.74l1.67-0.26l1.64-1.09l0.06-1.35l-2.98-1.22L606.36,443.17z
		 M737.02,442.15l0.22,1.44l1.16,1.48l0.26,1.19l1.57,2.05l0.9,0.64v-1.19l-1.32-1.38l-0.87-1.51l0.26-0.55l-1.67-2.05
		L737.02,442.15z M614.54,441.67l-2.34,0.8l-0.35,0.32l0.26,0.58l4.04,2.63l-0.26-3.75L614.54,441.67z M533.16,429.06l-1.7,1.38
		l-1.25,2.76l-0.03-1.28l-0.83-1.67l-2.37,1.22l-1.22,0.87l0.1,1.7l0.06,1.86l-0.22,1.54l-1.89,2.31l-1.44,0.32l-1.25,1.25
		l-3.5,1.89l-2.25,1.32l-1.19,0.9l-3.34-0.06l-0.71,1.03l0.64,0.77l-0.96,1.22l-1.73,2.37l0.42-2.28l-0.22-0.87l-1.83,0.22
		l-2.25,0.8l-0.87,1.64l0.67,0.74l0.61,0.39l1.48,0.67l-2.63,0.8l-1.48,0.13l-1.6-1.12l-4.04,0.35l-0.99,1.19l-2.47,0.51l-2.6,2.89
		l-2.82,1.41l-1.89,1.54l-3.31,4.11l-2.73,2.44l-1.25,2.21l0.93,2.79l-1.64,3.47l0.99,1.86l3.18-1.16l2.7-0.96l2.09-1.96l3.34,0.55
		l2.25-0.64l2.12-1.32l2.34-0.19l1.57,1.16l1.57,0.96l0.58,0.64l3.47,0.8l3.98-0.87l1.83,0.13l0.77,1.03l3.14,1.86l4.2,0.45
		l4.36-0.03l-0.93-1.19l-1.86-2.18l2.28-0.32l1.57-1.86l-0.64,2.28l-0.45,1.51l1.89,0.87l1.76-2.28l0.64-2.41l-0.29-1.54l1.09-0.29
		l0.29,2.34l1.12-1.09l0.93-2.47l0.93,0.9l1.38,0.51l1.12-0.67l0.26-1.7l1.64,1.12l1.35-2.86l0.9,0.35l2.02-2.21l0.32-2.21
		l1.73,0.06l0.96,0.64l0.99-2.15l2.82-2.7l2.05-1.22l2.34-1.32l-0.87-0.93l1.8,0.71l0.8-0.35l3.4-0.55l0.74-1.25l-0.71-1.32
		l-2.76-0.55l-1.89-0.03l1.96-0.9l0.71-1.03l-1.48,0.03l0.1-1.7l-1.32-0.99l0.42-0.51l1.76,1.6l1.25,1.09l1.6-0.32l0.48-3.37
		l-1.32-2.44l-0.93-0.9l-1.41,0.13l-0.39-1.19l-2.47-0.48l-1.51,0.42l-1.48,1.57l0.8-1.22l0.06-0.64l1.03-1.28l-2.18-0.58l1.03-0.67
		l-0.22-1.22l-0.67-1.16l-0.96-0.87l-1.6,0.32l-0.39-0.61l-2.37-1.48l-1.38-0.39l-1.38,1.44l-1.25-0.13l-1.51-1.93l-1.28-2.18
		L533.16,429.06z M499.08,425.88l-1.67,0.32l-0.19,1.25l0.77,0.64l0.39,0.1l1.41-0.1l1.12-0.9l-0.16-0.93L499.08,425.88z
		 M483.01,422.96l-1.03,0.39l-0.48,0.61l1.41,0.42l0.74-0.39l0.26-0.55l-0.74-0.45L483.01,422.96z M518.95,422.86l-2.09,0.77
		l-0.29,0.26l0.13,0.93l-0.39,0.9l-0.35,0.9l0.93-0.06l2.28-1.35l0.99-1.8l-0.06-0.42L518.95,422.86z M717.8,420.49l-2.31,0.06
		l1.54,2.28l1.8,1.38l2.21,0.58l3.21,2.41l1.38,1.57l3.53,4.2l-0.32,0.96l4.56,4.24l0.58,2.21l2.25,4.91l1.93,2.53l1.73,3.02
		l1.57,2.05l1.22,2.7l1.06-0.06l0.1-1.12l1.83,1.86l0.35-0.64l-1.25-2.15l-3.63-3.88l-0.64,1.44l-0.93-2.79l-1.86-3.34l-1.93-4.3
		l1.38,0.8l0.06-1.12l-3.53-4.56l-1.99-4.04l-2.34-3.31l-1.93-1.86l-0.77-0.1l-1.99-1.57l-2.05-0.87l-3.11-2.79L717.8,420.49z
		 M532.01,418.43l-0.83,1.16l-0.9,0.83l-0.42,1.99l-1.64,1.6l1.38,1.96l0.83,0.06l0.26-1.12h0.77l0.71,0.96l1.25,0.42l0.67,0.99
		l1.03,0.61l1.83-0.32l0.48,0.42l0.64-0.71l-0.06,1.64l0.64,0.35l0.39,1.09l2.73,0.87l0.9,0.74l2.05,0.99l0.06-0.93l0.77,0.35
		l0.64,0.96l1.54,0.87l0.96-0.06l0.96-0.74l0.48-0.8l0.35-0.96l0.35-0.74l0.35-0.74l-0.35-1.06l0.42-0.13l0.19-1.06l-0.13-0.67
		l-0.35-0.55l-1.7-0.67l1.12-0.19l0.39-0.39l-0.96-0.83l-0.1-0.87l0.13-0.45l-0.22-0.74l-1.12-0.32l-1.22,0.16l-1.51-0.06
		l-1.51,0.45l-0.61,1.6l-0.83,0.96l-0.9-0.96l0.55-0.29l0.77-1.25l-1.76-0.19l-1.64,0.39l-1.06-0.39l-0.29-1.09l-0.99-0.74
		l-1.09,0.74l-2.47,0.35l2.18-1.25l-0.03-0.39l-2.44-0.26l-0.1-1.28L532.01,418.43z M486.31,418.21l-0.96,0.29l-0.48,0.9l1.03,1.48
		h0.58l0.77-1.73L486.31,418.21z M540.67,418.11l-1.64,0.1l-1.12,0.96l-0.35,1.03l1.83,1.57l0.61,0.93l1.35-0.35l2.34,0.19
		l1.03-0.55l1.12-0.51l1.99,0.06l0.51-0.96l-0.83-0.1l0.1-0.48l-0.67-0.67l-1.09-0.83l-1.57-0.29l-1.38,0.1l-0.58,0.87l-0.55-0.67
		L540.67,418.11z M622.94,416.64l-2.6,0.06l-0.26,2.73l0.77,1.73l1.03,0.77l2.41,0.06l1.44-1.73l-1.38-1.06L622.94,416.64z
		 M628.21,416l-0.74,0.26l-0.58,1.32l0.8,0.87l1.64,0.51l0.1-0.16l-0.51-1.64L628.21,416z M537.97,415.64l-0.96,0.96l-0.1,0.26
		l0.29,0.19l0.83-0.19l0.87-1.03L537.97,415.64z M540.35,415.26l-1.03,0.13v0.99l0.96,0.58l1.48-0.19l0.42-0.19l0.64-0.55
		l-1.22-0.51L540.35,415.26z M516.03,414.49l-0.74,1.22l-0.87-1.16l-1.48,0.55l-1.32,1.38l-1.89,1.83l-2.28,3.43l-0.26,1.76
		l0.77,0.51l-1.35,0.77l-0.48,0.87l-2.34,1.09l-0.61-0.61l-1.7,2.15l-1.99,1.73l-1.22,0.51l-1.51,0.45l-2.82-1.16l-1.51-0.22
		l-1.22,0.51l0.22-2.44l0.61-2.25l-2.02-0.64l-1.41,1.09l-0.55,3.53l0.93-0.1l-1.99,1.99l-2.02,2.15l-0.8-0.32l-1.83,1.86
		l-2.28,3.24l-1.6,4.01l1.12-0.51l2.02-1.86l2.95-2.47l-2.89,3.88l-0.93,1.93l2.28-0.16l3.21-1.64l0.87-0.74l1.64-2.02l2.02-1.67
		l1.83-0.19l0.29,1.44l-3.27,2.57l-1.44,1.86l3.79,1.16l2.31-0.26l0.22-1.86l3.08-2.31l0.83-1.89l2.41-2.89l1.35,1.7l3.24-1.44
		l1.44-1.03l1.67-2.47l2.34-1.12l-0.39-1.67l1.48-0.16l1.93-1.25l2.25-1.89l-1.06-0.87l-0.32-1.73l2.09,0.26l3.95-1.06l-0.42-2.15
		l-2.21-1.09l2.31-0.32l1.73,0.9l0.22-2.12l-0.77-1.03l-2.37-1.19L516.03,414.49z M491.54,414.3l-0.61,1.64l-1.93,0.39l0.67,1.76
		l1.06,1.22l-1.67,0.67l-1.54,1.96l0.55,1.06l1.35-0.9l0.13-0.9l1.51-0.13l1.54-1.38l1.6-1.25l1.12-0.64l-0.19-0.61l1.44-0.13
		l0.64-0.8l-2.54-0.55l-2.25-0.29L491.54,414.3z M536.05,414.23l-1.44,0.32l-1.28,1.09l-1.73,0.19l-1.57-0.39l-1.8-0.26l-2.18,1.57
		l-1.06,1.06l-0.74,1.51l-0.55,2.15l-0.8,0.9l0.26,1.19l0.71,0.55l1.44-0.03l1.54-0.61l0.71-1.09l0.35-1.41l-0.16-1.22l0.8-0.93
		l0.67-0.83l0.99-0.26l1.16-0.55l1.06,0.48l1.35-0.26l0.8-1.12l1.41-0.32l1.09-1.06L536.05,414.23z M619.13,412.63l0.48,1.86
		l0.39,1.32l1.09-0.1l0.32-1.6l-0.55-1.12L619.13,412.63z M530.63,412.4l-1.38,0.55l-0.93,0.87l0.9,0.74l1.09,0.03l1.44-0.19
		l-0.06-1.16L530.63,412.4z M544.36,412.37l-1.16,0.96l-1.64,0.29l-1.06,0.67l1.35,0.35l1.67,0.29l2.15-0.67l1.25-0.61l-1.03-0.55
		l-1.19,0.13L544.36,412.37z M704.32,411.09l1.8,1.51l0.35,1.22l0.13,1.25l-1.09,1.64l2.12,0.99l3.43,1.41l1.25,2.15l2.21,1.51
		l2.05,0.48l-1.22-2.25l-2.98-1.86l-0.29-2.63l-3.18-2.31l-2.41-2.95L704.32,411.09z M521.61,410.67l-0.8,0.83l1.6,1.44l-0.03,1.06
		l1.99,1.76l1.64-1.19l1.12-1.41l-0.26-0.93l-0.96-0.77l-1.41-0.48L521.61,410.67z M694.57,410.38l-3.27,1.19l-2.09,0.39l-2.53-0.26
		l-2.15,0.35l-1.48,0.29l0.77,0.71l0.83-0.51l2.05,1.54l3.59,0.55l1.96-0.67l3.37,0.55l2.09,0.71l2.5,0.29l2.44,0.64l1.76,0.1
		l-2.5-1.57l0.58-1.09l-1.67-0.39l-1.38,1.28l-4.11-1.64L694.57,410.38z M535.5,409.74l-0.71,1.06l-1.57-0.74l-1.06,0.45l-0.61,1.16
		l1.86,1.09l1.51,0.55l1.67,0.13l-0.32-0.19l0.87-0.71l-0.19-1.25l0.67-0.55L535.5,409.74z M548.24,409.39l-0.9,0.64l-0.16,0.83
		l1.16-0.16l0.39-0.13l-0.16-0.93L548.24,409.39z M547.31,407.81l-1.6,0.03l-0.42,1.28l0.55,0.64l1.12-0.32l0.58-0.77L547.31,407.81
		z M527.39,405.98l-3.79,0.93l-1.51,0.13l-0.87,0.64l0.03,1.64l2.44,0.96l2.12-0.67l0.8,1.12l0.99,0.13l0.67-1.35l1.28-0.55
		l-0.55-1.35h-2.5l1.7-1.25L527.39,405.98z M517.12,404.8l-2.21,0.74l-0.32,0.8l-1.8,0.93l0.55,0.83l1.48-0.26l0.74-0.1l0.93-0.35
		l1.54-0.64l-0.71-0.96L517.12,404.8z M532.9,404.35l-2.86,0.03l1.06,1.41l1.09-0.19l0.83-0.87L532.9,404.35z M544.78,401.56
		l-1.41,0.32l-2.98,2.34l0.48-1.76l-0.8-0.45l-1.06,0.8l-0.8,1.99l-1.83,2.05l0.8,1.03l1.38,0.58l0.71-0.48l0.13-0.71l1.12,0.35
		l1.38,0.58l0.9-0.29l-0.32-1.03l-3.18-0.8l1.32-0.77l2.53,0.13l2.6-0.64l0.03-0.9L544.78,401.56z M550.3,401.24l-1.41,0.06
		l-0.87,0.9l-0.48,1.54l-0.55,0.45l0.19,0.96l1.54,1.44l0.55-0.77l0.99-0.55l0.16-1.99L550.3,401.24z M531.17,392.54l-0.67,0.74
		l-1.93,0.48l-1.54-0.29l-1.22,1.06l-2.44,2.34l-0.93,1.83l-0.87,0.93l-2.15,1.06l-1.93,1.28l0.67,0.64l1.51-0.1l-1.06,1.38
		l1.06,0.51l2.63-0.9l2.57-0.67l2.02,0.64l2.95,0.77l1.8-0.16l1.12-0.42l0.29-0.71l-3.02-0.96l-0.61-0.9l2.98,0.83l1.48-0.06
		l-0.29-1.41l2.28-0.06l1.16-1.7l0.58,1.03l1.25-0.22l1.03-2.37l-0.16-1.03l-0.67-1.7l-2.15,0.51l-1.41,0.87l1.41-1.93l-1.22-0.29
		l-1.41,0.77l-1.86,1.41l-2.31,0.87l0.83-1.09l1.44-0.8l1.16-1.19l0.45-0.55L531.17,392.54z M541.54,391.45l-1.73,2.15l0.77,0.71
		l0.16,1.83l-0.74,2.41l-0.51,1.06l1.73,0.16l1.35,0.03l2.18-1.03l1.54-0.22l2.57-1.64l-1.83-0.8l-0.32-1.57l-0.58-1.86l-0.16-0.74
		l-3.18,0.03L541.54,391.45z M602.86,389.55l-0.29,0.22l1.06,1.12l0.87,0.35l0.19-0.03l1.96-0.19l0.32-0.64l-1.22-0.39l-1.48-0.45
		H602.86z M605.58,375.66l-0.83,0.16l-1.09,1.6l-2.41-0.48l-1.83,0.39l1.73,2.34l3.4,1.35l0.58-1.35l0.58,0.71l-0.87,1.03l1.99,2.86
		l1.76,2.47l0.9,1.41l2.34,2.28l2.28,1.03l2.66,2.28l1.35-0.42l0.45-1.44l1.93,0.32l-0.1,2.41l2.05,1.09l1.32,1.57l1.67,1.22
		l1.67,0.74l0.35,1.25l-1.89,0.77l-0.39,1.09l1.12,1.6l3.4,2.89l-0.42,2.73l-1.16,1.19l2.6,7.48l1.89,0.87l2.63-1.03l0.26,1.48
		l1.19,0.55l-0.26,1.8l1.48,1.44l-0.96,1.51l3.72,0.8l-0.9,1.48l-2.34,1.09l-1.51-0.55l-2.05,0.35l-1.48,1.32l0.29,1.32l-0.32,1.7
		l2.6,0.26l-0.19,3.53l-1.6-0.03l-0.55,2.57l0.48,1.41l0.87,0.58l-2.25-0.06l0.58,0.87l-0.99,0.99l-0.64,0.87l-0.93-0.87l-1.67-2.47
		l-0.96-1.06l-1.8-0.51l-1.35,0.32l-1.83,1.19l-0.35,1.96l0.71,0.83l-1.73-0.29l-0.9,1.32l-0.61-1.12l-1.38,0.74l0.96,1.93
		l1.22,1.12l1.38,0.74l-0.51,1.19l1.12,2.25l-0.99,0.19l-0.55,1.86l0.74,0.67l-0.58,1.96l0.71,2.21l-0.45,0.8l1.41,2.05l1.96,0.48
		l-0.74,1.8l-1.44,1.54l-0.45,1.6l3.02,2.37l2.86,1.22l-2.76,0.06l-1.28,1.57l-0.16,2.12l2.18,1.44l-1.28,0.32l-2.15-2.66l-1.8-1.03
		l-0.29,0.35l1.96,1.64l0.32,2.92l3.05,1.19l1.8,3.18l1.57,1.28l1.16-0.64l1.22,2.09l1.93,0.99l0.35,1.96l0.96,1.54l-0.48,1.64
		l0.45,1.28l-1.51,0.55l-1.41-5.42l-1.19-2.12l-2.47-0.77l-3.11-3.79l-1.96-1.6l-1.28-0.42l-1.22-2.73l-1.51-1.28l-2.63,0.9
		l-0.13,0.96l1.54,2.86l0.42,3.63l0.71,0.87l2.18,1.86l0.74,1.54l1.35-0.51l0.51,0.58l2.15,0.74l0.51,1.96l-6.1-0.8l-2.02-0.03
		l-3.59,0.83l0.06,1.28l2.18,1.16v2.66l-2.34-1.19l-0.96,2.12l-2.09,1.06l-0.32,1.48l-1.64,0.26l0.26-2.41l-0.96,0.22l-2.95,4.36
		l-2.05,2.44l0.45,2.21l-1.8,1.35l-1.41-0.87l-0.61-1.86l1.51-0.87l-1.35-1.67l-3.85-0.16l1.54,1.86l-0.06,2.18l1.7,1.76l-0.13,2.53
		l-1.64-0.9l-1.32,0.1l-2.53,4.04l1.54,2.34l-1.09,1.09l-4.01-1.57l-0.8,1.41l1.19,1.41l0.1,1.73l-1.35-0.74l-2.15-0.83l-0.83-5.17
		l-2.63-2.34l0.96-0.55l6.74,1.83l2.15-1.35l1.12-2.12l-0.61-2.25l-1.41-1.41l-5.62-3.08l-3.56-0.42l-2.25-1.93l-1.19,1.28
		l-1.48-2.09l1.48-1.03l-3.79-2.37l-2.09,0.71l-2.15-0.19l-1.96,2.76l-1.99-0.32l-2.82,1.25l-4.14,3.85l-2.7,2.25l-4.75,5.97
		l-3.88,4.17l-3.98,2.76l-4.94,1.67l-2.18,1.7l-2.18,7.99l-0.58,3.85l1.89,2.47l2.6-0.13l4.56-3.08l0.67,2.41l0.22,5.26l0.71,4.3
		l-0.06,3.47l2.34,0.29l1.6-2.6l2.34,0.74l1.6-3.14l1.64-5.81l2.02-0.58l2.18-3.79l-1.41-2.18l-0.87-2.63l1.96-4.81l3.5-2.66
		l2.76-2.6l-0.03-2.18l1.64-2.34l2.6-0.83l1.99,1.73l0.1,1.48l-1.03,0.71l-3.75,3.66l-1.64,2.12l-0.96,2.02l0.55,3.24l-0.67,3.47
		l1.6,1.32l0.9,1.99l2.95-0.61l3.18-1.22l3.21-0.32l1.89,1.67l-2.02,2.02l-1.86,0.13l-1.99-0.61l-2.28,0.45l-2.37,0.9l0.06,2.05
		l1.12,1.32l0.71-0.42l-0.29,2.09l-0.51,2.76l-1.54-0.03l-1.38-2.76l-1.89,1.09l-1.16,2.18l-0.29,2.66l0.16,3.05l-2.92,0.9
		l-0.61,1.51l-1.99-0.26l-0.06-0.9l-1.96-0.87l-2.76,0.83l-3.47,1.09l-1.6,0.8l-0.74-1.32l-2.02-1.86l-1.35,0.71l-2.21,0.19
		l0.32-1.22l-1.83-1.32l0.29-1.35l-0.1-1.83l1.99-2.15l0.48,0.51l0.8-1.19l-0.9-0.77v-1.03l0.83-0.99l0.51-1.8l-1.73,0.61l-0.9,0.8
		l-1.7-0.22l-0.8,0.9l-0.58,0.83l-0.93,3.56l0.26,2.12l-0.42,1.99l0.1,1.41l-1.8,1.35l-0.19-0.87l-1.7-0.32l-0.61,0.61l-1.64-0.61
		l-3.18,0.55l-3.37,4.4l-1.35,0.55l-1.89,0.06h-2.02l-1.57,2.5l-5.78,0.61l-1.38-2.28l-0.83,4.01l-3.11-2.44l-2.92-0.58l-0.83,2.44
		l2.66,2.79l0.9,2.37l0.93,4.43l-2.82,6.35l-1.89,1.41l-3.59-1.8l-1.93-0.74l-2.12-1.76l-2.95-1.54l-2.37-2.02l-4.01,0.48l0.26,1.86
		l-1.12,2.15l-0.39,1.12l-0.06,1.38l-0.51,1.32l-1.28,1.6l-0.71,1.16l-1.38,0.58l-1.06,1.89l0.03,1.51l0.9,0.87l-0.55,2.02
		l-1.35,2.21l1.32,0.35l1.09,1.16l1.25-0.29l2.02,1.73v2.15l0.51,1.51l1.12,0.9l1.35-0.71l1.93-0.32l2.34,1.22l3.18,1.41l2.57-1.64
		l2.09,0.19l1.22-1.86l1.89-0.83l-0.38-2.25l1.8-2.25l2.05-1.19l0.58-0.99l3.34,0.51l2.95-1.32l0.45-1.99l0.87-1.89l3.82,0.16
		l4.56,2.44l2.66-1.25l1.09,0.03l1.8-1.16l1.22-0.16l1.73,1.64l1.16,0.71l0.06,3.56l1.35,2.37l1.93,2.76l1.76,1.96l1.89,0.61
		l0.93,1.6l1.64,0.93l0.58,1.6l1.06,0.61l0.58,1.86l0.8,2.15l-0.67,0.64l-0.8,1.7l-0.13,1.06l1.19-0.1l1.83-2.66l1.16-0.03
		l0.55-1.73l-1.83-1.57l1.41-2.02l2.28,0.87l1.32,1.8l0.64-1.16l-0.22-0.67l-2.12-2.09l-1.83-1.32l-2.21-1.6l0.83-0.58l-0.55-0.87
		l-2.05-0.32l-2.44-3.27l-0.83-3.11l-2.05-2.21l-0.48-1.93l0.48-0.93l0.19-1.73l2.18-0.8l1.86,0.87l-0.61,0.22l-0.1,0.03l-0.26,1.19
		l0.55,1.32l0.99-1.38l1.51,0.83l-0.13,1.19l0.93,1.67l-0.55,0.16l1.76,2.92l2.21,1.38l1.35,1.44l2.31,1.6l1.06,0.83l0.61,1.22
		l0.55,0.32l0.39,0.61l-0.45,1.03l-0.45,2.31l0.1,1.67l1.41,1.32v0.77l0.45,0.29l0.1,0.99l1.28,2.09l0.96,1.67l0.35,2.28l0.9,2.82
		l2.28,1.6l1.89,0.1l-0.93-3.05l1.8-0.26l-0.77-1.8l2.6,1.03l0.03-1.93l-1.38-1.06l-1.48-1.64l1.09-0.71l-1.32-1.7l-0.51-2.09
		l0.55-0.74l1.38,1.86l1.51,0.1l1.41-0.51l-1.83-2.02l3.34-0.77l1.38,0.35l1.67,0.13l-0.06,0.71l0.87,1.64l2.28-1.86l1.16-1.09
		l3.21-0.22l0.45-0.87l-2.34-1.06l-0.35-1.35l-0.87-1.99l0.93-2.5l1.32-1.48l0.64-4.24l0.77,0.29l1.22-0.8l-0.1-0.9l1.83-2.7
		l0.83-1.99l2.25-0.55l0.26,1.28l3.91,0.58l0.77,0.77l-2.28,1.35l-0.42,0.74l2.82,0.77l-0.42,1.7l1.48,0.58l3.24-2.41l2.66-0.93
		l0.35-1.32l-2.5,0.55l-1.32-0.71l-0.35-2.18l1.96-1.54l2.25-0.51l1.44-1.35l1.89-0.58l2.05-0.93l0.19,0.74l-3.34,2.02l1.54,1.16
		l-1.64,3.24l-1.73,0.83l2.44,1.73l3.02,0.83l3.69,2.34l1.09,0.9l1.48,0.1l1.7,0.96l1.06,2.21l-0.13,1.54l-2.79,2.41l-2.31,0.13
		l-3.02,1.06l-3.98-0.74l-4.88-1.83l-4.36,0.51l-3.02,1.25l-3.11,2.47l-5.13-0.22l-1.09,2.66l-4.2,0.19l-3.05,3.31l1.76,1.64
		l-1.38,2.66l2.05,1.89l1.7,3.37l3.14-0.1l2.82,1.7l1.99-0.48l0.61-1.44l3.08-0.06l2.44,1.64l4.33-0.77l1.8-2.15l2.47,0.48l1.7-0.48
		l-0.96,1.38l1.22,1.38l-0.58,1.48l0.51,2.53l-0.03,0.1l-1.25,2.54l-0.83,2.82l-0.06,0.03l-0.35,0.87l-0.42,2.57l-0.67,1.6
		l0.22,0.16l-0.83,1.16l-1.41,0.99l-2.41,0.03l-2.5-0.58l-0.64,1.09l-0.9-1.54l-2.18-0.29l-2.7,0.42l-1.22,0.99l-1.8,0.83l0.45-0.8
		l0.06-0.19l0.61-0.8l-0.19-1.28l-1.41,0.32l-0.87,0.96l-0.67,1.09l-0.13,0.48l-2.89-0.9l-2.92-0.87l-4.08-0.03l-0.71-1.09
		l-3.02-0.48l-0.96-0.61l-1.12-0.06l-0.96-1.54l-4.04-0.96l-2.09,0.29l-2.25,1.35l-1.06,1.48l0.51,2.57l-1.57,1.35l-1.54,0.67
		l-3.11-2.02l-4.14-1.93l-2.63-1.06l-1.06-3.11l-3.75-2.18l-2.37-1.03l-1.25,0.03l-3.24-1.86l-1.03-0.77l-0.45-1.7l-1.48-0.42
		l-0.22-1.93l2.15-1.19l0.87-2.76l-0.83-1.06l0.32-1.51l1.67-1.32l-0.1-0.67l-2.57,0.67l0.42-1.67l-1.83-0.87l-3.24,0.55l-1.89-0.32
		l-0.93-1.09l-2.89-0.83l-2.79,0.48l-1.25-0.93l-4.43-1.25l-4.59-1.09l-2.76-0.03l-2.02,0.64l-2.95-0.64l-3.02,0.64l-1.09-0.55
		l-2.41-1.96l-2.44-0.96l-1.03-2.09l-1.8-0.93l-1.48,1.48l-2.79,2.28l-2.28,0.22l-2.98-0.03l-2.34,1.12l-0.9,1.35l-1.89,1.99
		l-0.74,4.08l-2.95,1.16l-1.54-0.03l-2.66,0.74l-2.41-1.22l-1.67,0.29l-2.63,1.8l-1.99-0.13l-1.51,1.09l-0.58,1.44l-1.25,1.16
		l-0.96-0.16l-1.96,0.74l-1.51,1.28l-0.16,1.03l-1.28,0.8h-1.16l-0.55,1.16l-0.48,1.03l0.9,2.15l0.22,1.76l-0.67,1.12l-0.1,1.54
		l-0.48,2.79l-1.03,2.18l-1.03,0.74l-0.16,1.54l-0.93,0.83l-1.67,0.83l-1.22-0.39l1.03,1.86l0.58,2.76l-0.58,0.83v2.21l0.03,0.64
		l0.67,1.12l-0.1,0.35l0.45,1.16l1.06,0.96l1.19,2.05l0.67,0.96l0.29,0.8l0.1,1.28l0.58,0.96l0.64,0.77l0.9,1.67l0.96,2.25
		l0.06,1.96l0.35,1.19l1.28,2.18l1.86,2.25l0.74,0.67l1.7,2.7l2.31,2.73l2.47,3.31l2.89,2.79l0.77,0.42l0.58,0.39l2.98,0.8
		l2.12,0.48l3.59,1.44l1.96,0.93l2.12,1.48l1.41,0.67l2.73,1.89l2.86,0.61h1.8l5.1,0.71l2.6,0.51l2.7,0.74l2.89,1.06l2.44,0.8
		l2.25,2.31l0.99,2.02l1.73,1.96l2.66,0.9l1.32-0.13l1.25,0.51l3.56,0.16l-0.06,0.61l0.83,0.58l0.67,1.19l1.54,0.77l1.28,1.8
		l-0.55,1.57l-1.22,2.09l0.64,0.48l-0.71,1.35l-0.8,1.28l-0.74,0.45l-0.13,0.61l2.12,2.6l2.28,2.15l3.59,2.73l2.92,2.57l0.96,1.51
		l0.51,0.64l-0.29,0.29l1.76,1.41l0.8,1.28l1.16,1.76l-0.99,0.42l-0.16,0.29l0.93,1.09l0.99,1.12l1.06,0.74l0.29,0.83l-0.26,0.99
		l-0.99,0.42l-1.83,0.48l-0.71,0.39l-0.9,0.93l-0.1,0.51l-0.93,0.87l-0.22,0.93l0.48,0.77l0.42,0.9l2.95,1.57l0.9,0.77l2.09,1.48
		l1.93,1.06l1.38,0.58l0.58,0.51l0.45,0.9l1.54,1.22l1.03,0.58l0.99,0.67l1.48,0.55l2.54,0.71l2.63,0.83l1.76,0.48l2.28,0.51
		l0.29,0.16l-0.9-0.1l1.16,0.22l0.16,0.06l0.48,0.06h0.1l1.38,0.19l0.99,0.1l1.35,0.16l1.32,0.13l1.7,0.16l2.5,0.19l2.98,0.19
		l1.22,0.1l1.8,0.06l3.24,0.16l1.44,0.03l1.83,0.06l0.35-0.03h1.54l3.11-0.03l2.28-0.06l2.18-0.16l3.53-0.32l1.8-0.29l0.93-0.19
		l1.38-0.26l0.64-0.1l2.18-0.32l0.9-0.26l0.48-0.39l0.93-0.45l0.35-0.29l-0.8,0.03l-0.22-0.22l1.48-0.32l3.98-0.71l2.73-0.51
		l1.41-0.42l0.58-0.35l-0.74-0.03l0.64-0.38l0.29-0.77l-0.61,0.1l0.03-0.22l-0.55-0.42l-1.44-0.48l0.42-0.71l1.41-0.39l2.44-0.96
		l1.35-0.35l3.98-1.67l3.88-1.12l3.14-0.96l2.28-1.12l1.44-1.09l1.16-1.06l-0.48-0.51l0.16-2.05l-0.26-1.16l0.29-1.44l-0.48-0.58
		l-1.22-0.06l-1.32-1.25l-1.12-0.8l0.29-0.8l-0.16-0.45l0.99-1.19l-0.06-0.42l-2.21-0.22l-0.16-0.93l1.7-2.47l1.41-0.83l0.74-1.35
		l1.12-0.96l0.51-1.44l1.32-0.39l0.87-0.96l2.44-1.28l0.8-0.64l0.8-1.22l3.79-3.31l3.18-2.37l5.07-3.43l3.34-2.7l3.85-4.2l2.73-3.43
		l2.63-4.33l1.76-3.72l1.35-3.24l0.64-2.98l0.58-1.16l-0.16-1.32l0.13-1.57l-0.13-0.67l-1.22,0.45l-1.41,1.41l-1.7,0.87l-1.44,0.87
		l-1.03,0.39l-1.86,0.71l-1.12,0.83l-1.6,0.67l-2.86,1.67l-3.59,1.32l-3.08,1.48l-1.67,0.42l-1.6-0.67l-0.74-0.9l-1.12-0.19
		l-1.51-0.35l1.86-1.09l0.03-1.09l-0.87-0.61l-1.73-0.42l-1.12-0.64l-1.93-1.12l-1.99-1.16l-4.81-1.64l-1.93-0.99l-1.12-2.37
		l-2.21-2.92l-1.89-0.74l-1.32-0.51l-1.48-3.24l-0.71-2.92l0.67-0.64l-1.28-2.76l-0.61-0.51l-3.98-2.18l-0.26-1.96l0.61-0.61
		l-3.14-3.05l-1.12-1.64l-1.28-1.54l-2.7-4.65l-2.12-3.05l-1.48-3.27l0.32-0.32l2.47,4.43l1.51,1.28l1.09,0.9l0.71-0.61l0.74-1.73
		l0.51-2.5l0.77-1.38l0.13,0.45l-0.29,1.35l-0.06,1.12l-0.35,1.8l1.57-0.19l1.76,1.96l2.12,2.28l1.44,2.15l0.96,0.55l1.03,1.48
		l-0.1,0.71l1.19,1.6l1.8,0.35l1.6,0.93l2.18,3.02l0.03,1.8l0.55,1.99l2.44,2.37l1.51,0.19l2.47,1.54l1.16,2.15l1.99,1.99l1.8,0.61
		l0.35,1.06l1.09,0.61l0.55,1.09l0.26,1.16l-0.35,0.61l0.45,1.16l-0.64,0.29l1.06,0.9l0.83,1.83l0.61,0.64l0.03,1.48l0.99,1.32
		l2.34-0.45l1.03-0.61l1.67-0.39l0.45-0.8l0.83-0.42l0.67-0.9l0.8-0.39l2.76-0.93l2.02-1.12l1.76-1.67l0.99-0.16l1.41-0.61
		l2.63-2.82l4.91-3.02l2.95-2.31l-0.06-0.93l0.42-1.44l2.12-1.6l1.41-0.74l1.86-1.76l1.73-0.45l1.32-1.38l-0.22-1.09l1.06-1.22
		l1.86-0.83l0.58-0.87v-1.48l1.64-1.89l1.35-0.64l0.19-0.45l-0.77-1.67l0.16-1.64l0.45-0.96l1.32-0.51l0.61-2.44l0.99-1.51
		l0.22-1.03l0.61-2.21l-0.16-0.61l-1.09,0.16l-0.99-0.58l-1.7-0.99l-1.8,0.32l-2.15,0.64l-1.83-0.32l-1.8-1.38l-0.96-2.15l0.22-0.71
		l-0.03-1.35l-0.42-0.1l-0.58,1.38l-1.32,2.63l-1.67,2.82l-1.54,2.82l-1.76,0.64l-2.47,0.9l-2.21,1.35l-0.26-0.77l-0.51,0.35
		l-0.8-0.93l0.29-1.99l-0.42-1.73l-1.09-0.61l-0.74,0.61l-0.48,1.86l0.64,2.12l-0.58-0.58l-0.61-0.83l-1.03-0.55l-0.58-0.87
		l0.1-1.12l-0.45-1.19l-2.25-0.58l-0.74-0.9l-1.57-0.22l-1.7-2.28l-1.41-2.05l0.13-0.77l-0.9-1.22l1.73-0.39l0.83-1.57l2.05,0.42
		l1.41-1.03l3.05,3.37l2.57,2.21l2.98-0.19l3.43,1.16l3.72-0.45l2.47-2.7l2.02-1.51l1.44-0.1l2.18,3.05l3.21-1.16l3.18-0.87
		l5.33-1.89l3.63-2.54l4.2-2.63l4.49-3.59l2.66,0.83l1.41,1.48l2.05-0.58l3.69,0.19l1.06,0.55l-0.83,1.86l4.27,0.83l1.8-1.03
		l2.92-4.4l1.28,2.09l1.06,3.18l1.73,2.7l2.44,4.08l3.08,1.54l0.83,1.19l1.32,2.5l1.8,1.19l1.06,0.39l1.41,1.54l1.67,2.25l2.54,0.03
		l0.8-1.54l0.45-2.34l1.86-2.73l-0.8-0.06l0.61-2.79l1.09-1.32L735,624.8l0.32-3.21l-0.67-1.86l-1.35-2.66l0.03-2.54l0.93-1.22
		l1.51-2.92l0.77-1.73l-0.39-1.12l1.35-3.91l0.83-3.27l0.9-5.49l1.83-5.04l0.26-2.7l-0.93-1.7l1.76-3.43l1.09-1.6l-0.19-1.22
		l0.71-0.71l0.58-0.45v-0.77l0.87-0.55l-0.19-2.09l-0.64-0.77l1.38-2.15l1.32,0.35l0.83,0.67l0.71,1.06l0.99,0.51l1.89,0.1
		l0.93-1.16l0.22,1.12l2.28,0.64l1.19,1.6l0.71,3.72l1.03-1.09l0.8-1.25l0.77-4.59l0.29-2.86l1.28,0.67l1.35,2.34l1.35,1.76
		l0.87,0.06l0.71,2.6l0.77,0.39l0.16,2.5l0.58,1.35l0.19,2.89l0.19,1.64l0.48,0.67l-0.1-1.7l0.77-0.32l0.8-0.29l0.42,0.61l0.55-0.29
		l0.39,0.29l0.13,1.83l0.55,0.13l0.35,1.35l0.71-0.22l0.19,0.74l1.22-1.7l0.9-1.19l0.55-2.15v-0.74l-0.42-0.71l-0.35,0.42
		l-0.16-0.99l-0.16-0.45v-1.25l-0.26-1.25l-0.55-0.19l-0.74,0.39l-0.26,0.45l-0.67,0.35l-0.64,1.48l-0.77,0.32l-0.61-1.35
		l-0.87-0.83l-0.71,1.73l-0.51-1.38l-0.19-2.79l-0.42-4.65l-0.77-2.6l0.87-2.44l0.48,2.12l0.8-2.41l1.12-1.51l1.16,0.83l0.67-0.03
		l0.77-2.05l0.9-0.9l0.19,2.25l0.61,0.32l0.35-5.49v-4.08l0.22-4.62l-0.03-3.72l-1.28-4.04L771,542.1l-1.06,0.03l-1.12,1.22
		l-1.93-0.16l-1.67-0.13l-0.64-2.05l-0.64-4.27l-0.32-5.36v-1.64l1.03-2.95l0.42,1.41l0.99,0.77l0.16-1.64l-1.22-3.05l0.16-3.18
		l-0.29-4.78l-0.58-2.53l0.51-0.29l-0.51-2.5l-0.06-3.27l-0.32-1.54l1.09,2.37l-0.16-2.92l-0.71-2.31l0.77-1.64l0.9-0.48l2.6,3.53
		l0.96,2.12l1.83,2.25l0.19,1.86l0.35,1.25l0.32-0.13l0.1-0.9l0.8,1.16l-0.48-1.93l0.13,0.26l0.39,0.42l0.42-0.29l-0.16-0.51h0.03
		l0.8,2.15l0.1,0.06l0.06,0.8h0.51l0.26-0.22l-0.74-2.44l-0.19,0.29l0.03,0.35l-0.22-0.8l-0.35-2.66l0.29-0.67l-0.39-1.41l0.29-0.06
		l0.06-1.25l-0.39-1.19l-0.06,0.45l-0.48-1.28v2.47l0.26,1.48l0.06,1.28l-0.03-0.03l-0.32-1.41l-1.6-3.69h-0.03l-0.93-2.31
		l-0.64-0.39l-0.51-1.22l-0.26-0.22l0.39,1.35l-0.13,1.19l0.13,1.67l0.96,2.37l-0.9-1.19l-0.8-4.52l-1.32-4.43l-1.12-2.41l-1.19-1.6
		l-1.06-1.28l-1.54-2.47l-2.73-3.18l-3.08-3.63l-1.28-0.67l-1.06-0.35l-0.45,0.87l-0.96-0.87l-0.26-0.32l-0.03,0.06l-1.86-1.73
		l-0.22,0.19l-1.22-1.09l-1.28,0.45h-1.64l-1.89-0.61l-0.96,1.7l-1.51-2.34l-1.19-3.08l-1.25-1.93l-0.93-3.75l-1.06-0.39l0.1,1.48
		l-0.67,1.48l1.73,3.69l-0.55,1.38l-0.96-0.61l-0.29,1.64l-1.48,0.13l-1.09-1.89l-0.16-2.31l-1.54-2.34l-1.8-3.56l-0.99-2.41
		l1.09-0.45l1.73,2.73l0.83,0.06l1.16,1.89l-0.83-2.86l-1.25-2.31l-1.12-3.53l0.45-0.71v-0.22h0.51l-0.06-0.48l-0.42-0.1v-0.35
		l0.32,0.06l1.32,1.28l0.35,0.03l0.13,0.29l-0.51-0.16l0.22,0.93l0.61,0.87l1.06,0.13l1.16-0.42l0.67-1.16l-0.26-0.55l-0.32,0.42
		l-0.74-0.22l-0.35,0.1l-0.26-0.29l0.19-0.87l1.51-0.45l0.71,1.96l1.96,0.38l0.87,0.8l-0.22,0.51l0.61,1.32l0.51-0.83l0.26-0.13
		l0.61,0.32l-0.1-0.39l0.8,0.32l1.22,0.45l1.48,1.12l-0.51-1.19l-1.12-0.71l-0.71-0.35l-0.9-0.48l-0.48-0.03l-0.29-1.03l-1.28-2.44
		l-0.9-2.41l-1.35-1.6l-2.37-1.44l-1.22-0.26l-2.02,0.48l-0.67,0.74l-0.16,0.67l-0.29-0.39l-0.99-0.61l-0.83-1.28l-0.71-1.67
		l-0.9-1.16l-0.48-0.61l-0.83-1.38l-1.6-0.71l-0.96-1.03l-1.06-1.28l-0.1-0.74l-0.9-0.67l-2.6-3.53l0.71-0.83l-0.51-1.32l-2.37-3.24
		l-1.93-1.8l-3.85-3.59l-3.98-3.4l-1.99-1.06l-4.91-3.56l-4.4-1.54l-3.11-0.61l-3.27-1.64l-2.18-0.19l-1.67,2.02l0.71,1.7l1.83,1.22
		l0.13,1.48l-1.35,0.55l0.71,2.5l-9.21-6.71l-7.89-4.78l-3.53-4.4l-2.34-4.01l-2.5-1.41l-1.16-1.99l1.89-0.19l-1.89-1.86l-3.11-2.6
		l-0.58,1.28l-6.83-1.86l-3.72-2.47l1.89-1.76l-5.55-1.7l-2.53,0.16l-1.67-1.06l4.04-0.55l4.01,1.16l4.43,1.09l5.1,1.22l2.44,1.73
		l1.16-0.16l2.44,0.77l3.82,0.1l4.3-1.38l2.6-0.93l0.96-0.64l-4.08-1.8l-2.6-0.13l-2.66-1.86l-2.92,0.03l-3.59-1.89l-0.29,0.74
		l-2.37-0.06l-1.41-1.03l-3.21,0.8l1.09,1.38l-0.83,0.32l-3.66-0.58l-1.83,0.19l-1.48-1.44l-2.18-0.58l0.13-0.77l-5.13-1.67
		l-0.71-1.96l-1.38,0.13l-3.18-0.55l-3.43-0.42l-1.48-0.55l-5.23-1.03l-2.41-1.51l-0.77,0.19l-0.42,0.64l0.26,0.67l-0.42,1.54
		l0.39,1.32l-1.64-0.9l-2.41-0.13l-0.03,0.03l-1.38,0.32l-0.1,0.96l-1.89-0.26l0.8-0.48l-0.22-0.83l-1.73-0.35l-1.16-0.77l0.22-0.8
		l-1.51-1.09l-0.71-0.9L605.58,375.66z M601.67,372.26l-1.38,0.03l-0.22,0.16l1.41,0.58l0.99,0.74l1.06,0.06l0.74,0.58l0.48-0.58
		l-0.29-0.22l-1.41-0.29l-0.39-0.42L601.67,372.26z M598.72,366.19l-1.19,0.03l-0.1,0.58l1.32,0.42l1.83,0.1l-0.83-0.61
		L598.72,366.19z M519.4,362.18l-2.37,0.71l-0.71-0.03L514,363.4l-1.06,0.03l-4.01,1.25l-0.87,0.55l1.57-0.06l2.6-0.67l1.6-0.13
		l1.16-0.06l2.05-0.71l1.44-0.39l2.41-0.67l-0.1-0.26L519.4,362.18z M529.05,361.41l-0.8,0.26l2.6,0.16l0.58,1.32l1.8-0.67
		l1.06-0.16l-0.19-0.35l-0.8-0.32h-1.32l-1.22-0.22H529.05z M577.06,359.71l-1.96,0.48l-1.67,0.67l0.83,0.42l1.25,0.1l1.03-0.22
		l1.76-0.45l-0.26-0.64L577.06,359.71z M584.44,352.04l-1.28,0.1l-0.58,0.06l-0.55,0.1l-0.83,0.32l0.06,0.06l1.35,0.22l1.09,0.19
		l0.48,0.19l0.83-0.13l-0.1-0.26l0.51-0.32l-0.16-0.13l-0.61-0.16l0.22-0.16l-0.19-0.1H584.44z M585.98,351.5l-0.87,0.1l0.29,0.13
		l1.12,0.13l0.58-0.16l0.35-0.06l0.03-0.03l-0.32-0.1H585.98z M587.62,351.37l0.13,0.1l1.76,0.1l-0.26-0.13L587.62,351.37z
		 M591.79,351.18l-0.26,0.03l-0.93,0.22l0.19,0.06h0.22l1.16,0.06l0.39-0.16l0.13-0.03L591.79,351.18z M596.15,351.15l-0.03,0.19
		l0.42,0.1l1.06-0.03l-0.16-0.06l-0.51-0.13L596.15,351.15z M774.43,597.52l0.8-3.21l0.51-3.18l0.45-3.21l-0.22,0.13l-0.51,1.93
		l-0.19-0.13l-0.1-0.93l-0.26,0.99l-0.48,0.93l0.35-2.82l-0.64,1.25l-0.55-0.06l-0.87,0.96l-0.99,2.82l-1.12,0.42l-0.71,0.67
		l-0.99,0.74l-1.32,0.39l-1.99,3.82l-0.83,1.67l0.26,0.83l1.64-0.51l1.03-0.9l0.77,0.35l1.12-1.19l0.48,0.58l0.35,0.93l0.93-0.74
		l0.67,0.67l0.35,0.1l0.58-0.51h0.22l0.87-2.02L774.43,597.52z M575.16,346.14c96.03,0,176.6,66.51,198.66,155.82l-0.42-0.87
		l-0.13,0.06l0.42,2.7l0.29-0.29l0.26,0.67l0.22,1.54l0.35,0.71l-0.13-0.74l0.39,1.06l0.06,0.16c0.64,2.9,1.25,5.81,1.76,8.76
		l0.03,0.16l0.38,2.37l0.39,2.15c0.13,0.88,0.23,1.78,0.35,2.66l-0.06-0.03l0.45,4.33l0.35,2.57l0.29,2.05
		c0.02,0.2,0.02,0.41,0.03,0.61v1.83l-0.19-1.73v1.19l0.16,0.96v0.13l-0.03,0.8l-0.16-0.74l-0.19,0.48v1.19l0.29,3.05l0.03,0.8
		l-0.1-0.03v1.25l-0.61-0.26l-0.19,1.38l0.1,2.15l0.26,0.42l0.06-3.08l0.22,3.66l0.13,0.16l0.06-1.19l0.26,0.67l0.03,1.32l0.06,1.51
		l-0.45,2.73l0.06,2.15l0.19,0.64l0.22-2.73l0.03-0.13v0.48v3.72l-0.29,3.95l-0.13,1.64l0.06,2.31l-0.29,2.63l-0.35,1.44l-0.22,3.08
		v2.21l0.06,1.38l0.19,0.35l0.19-0.87l-0.13,2.05v0.19c-0.19,1.58-0.48,3.12-0.71,4.68l0.32-3.56l-0.19,0.22l0.22-3.98l-0.16-2.37
		l-0.32,4.08v2.37l-0.26,2.7l-0.26,2.82l-0.26,2.37l-0.32,2.57l-0.32,1.93l-0.26,1.44c-0.05,0.27-0.1,0.54-0.16,0.8l-0.42,1.89
		l-0.42,1.8c-0.15,0.68-0.39,1.32-0.55,1.99c-21.15,90.58-102.34,158.32-199.27,158.32c-79.26,0-147.84-45.42-181.88-111.44
		l0.06,0.03l0.48,0.45l0.22-0.32l1.44,1.16l0.51,0.13l-0.1-1.99l-0.51-1.54l-0.99-3.27l-0.67-1.54l-1.38-2.31l-1.32-2.57l-2.18-5.55
		l-2.31-5.62l-1.99-3.95l-2.54-6.39l-1.32-2.63l0.1-0.64l-0.61-2.54l-1.8-5.87l-1.25-4.3l-0.64-0.8l-0.1-2.15l-1.48-5.36l-0.22-1.51
		l0.61,0.48l0.03-1.51l-0.39-1.86l-0.13-5.23l-0.06-1.86l-0.26-0.87v-1.32l-0.45-4.81l-0.35-2.6l-0.16-1.22l-0.45-3.66l-0.42-2.18
		l-0.13,0.06l-0.39-3.88v-1.86v-2.57l-0.1-1.12l0.22-1.16l0.16-3.11l0.03-2.66l0.03-1.6l-0.1-1.48l0.45-2.09l0.19-3.18v-2.47
		l0.29-1.93l0.22,1.83l-0.03-3.4v-3.47l-0.16,0.48l-0.16-0.99l0.19-2.47l0.39-2.54l0.19-2.86l0.26-2.6l0.26-0.77l0.58-2.95
		l0.29-2.02l0.64-2.37l-0.06-0.39l-0.39,1.28l0.16-1.54c0.2-0.84,0.44-1.66,0.64-2.5c0.01-0.02,0.03-0.04,0.03-0.06l0.13-0.1
		l0.58-2.37l-0.03-0.19c8.56-32.98,25.09-62.67,47.49-87.02l-1.09,1.7l-0.45,1.22l-0.99,1.6l-0.87,1.28l-1.48,1.86l-1.16,1.8
		l-1.89,2.28l-1.12,1.67l-0.22,0.64l-0.74,1.03L414.5,428l0.61-0.71l0.61-0.42l0.71-0.77l-0.35,0.8l-0.9,1.67l-1.35,2.18l-1.22,2.47
		l-1.16,1.73l-1.35,1.7l-0.29,0.51l-0.42,1.8l-0.67,1.12l-2.25,2.95l-1.19,1.38l-0.83,0.42l-0.77,0.87l-1.67,2.21l-1.83,2.54
		l-0.74,1.28l-0.77,1.03l-0.67,1.41l-0.13,0.58l0.67-0.26l0.55-0.45l0.99-0.9l2.25-2.82l0.71-0.61l1.6-2.05l1.73-1.96l1.38-1.32
		l1.09-0.55l0.61,0.39l0.35,0.74l0.22,1.76l0.51-0.1l0.29,0.74l-0.26,1.09l0.64,0.8l-0.16,2.02l1.09,0.55l2.12-1.6l0.8-0.67
		l0.32-0.74l2.05-1.25l1.09-1.86l-0.74,1.6l1.51-1.25l0.83-0.06l-1.89,1.25l-1.16,1.6l-1.25,0.13l-0.13,0.26l1.35,0.29l0.64,0.26
		l0.83-0.51l0.55-0.77l1.32-1.09l-0.77,1.03l-0.22,0.55l-0.61,0.48l1.28,0.67l1.51-0.39l0.26-0.71l0.48,0.35l-0.26,0.06l-0.32,1.41
		l0.06,2.7l0.55-0.9l0.26-2.95l0.26,1.44l-0.13,1.22l-0.06,0.9l0.1,1.38l-0.22,1.06l0.16,1.28l0.64-0.19l0.64-0.96l-0.9,0.71
		l0.19-0.93l1.38-1.38l1.25-0.64l0.35,0.06l1.41,0.42l0.42,1.86l0.58,1.7l0.99,1.6l0.87-0.77l0.13,2.12l-0.06,3.27l-1.89-2.47
		l-2.12,1.22l-0.29,1.7l1.7,1.35l0.99,1.51l1.57,3.72l1.8,1.54l0.87-1.86l1.86-1.25l-2.98-0.35l-0.42-3.18l1.35-3.34l1.96-1.67
		l2.89-2.05l1.73,0.99l1.38-2.34l-0.1-2.76l-1.86-3.08l-3.02-1.64l-0.13-1.51l2.02,1.25l3.14,1.32l0.96,1.89l1.83,0.77l0.06,1.86
		l-0.13,2.82l-0.55,4.3l0.58,2.95l2.44,1.16l1.32,2.47l1.16,0.77l1.25,0.74l3.14-1.86l0.99-1.28l0.19-1.54l2.34-1.89l0.8-1.54
		l0.51-3.02l1.6-2.25l1.57-2.86l1.93-0.1l3.56-3.11l3.91-3.34l2.79-2.02l-1.38-0.55l-3.34-0.39l-1.48-1.73l1.89-1.6l0.64-1.51
		l3.95-1.44l2.6-0.58l0.64-2.53l1.28-0.67l2.15-2.02l1.35-1.41l-0.55-0.99l0.64-1.41l1.51-2.34l-0.42-0.87l-4.88,0.96l-2.92,0.93
		l-2.57-1.28l-2.82,2.12l-2.79,1.48l-1.99,0.48l-1.76-0.48l-1.41-1.44l-0.42-2.34l-1.86,1.41l-4.68,1.83l-2.47-0.32l-0.35-1.12
		l3.53-3.14l3.53-1.76l2.95-0.96l2.28-0.06l1.03-1.76l1.38-2.57l1.96-1.73l1.76-1.96l1.86-1.12l1.89-1.48l2.79-2.63l0.8-1.99
		l2.44-0.55l2.89-0.45l1.83-1.86l3.02,0.39l1.73,0.74l2.09,1.67l1.25,1.73l-0.55,1.41l1.76,0.26l0.64,1.06l-0.8,1.67l1.25,1.48
		l1.09,0.42l1.96,1.28l1.35,0.42l-1.48,1.06l-0.22,1.57l1.25,2.18l1.48,0.19l1.96-0.71l1.38,0.83h1.6l2.12-1.25l1.12-1.35l0.9-1.32
		l-3.4-0.42l-2.25-0.99l-1.64-1.32l2.6-0.74l2.05,0.58l2.63-0.83l-1.57-1.67l3.05,0.55l1.7-1.54l0.93,1.09l4.11-0.39l1.86-0.48
		l1.25-0.9l-1.35-1.54l-3.08-0.99l-1.93,0.67l-2.47,0.48l-2.54-1.09l0.64-0.74l-1.76-1.16l2.63,0.67l2.09-1.12l0.19-0.93l-1.76-0.39
		l1.22-1.32l0.87-1.51l2.7-1.06l0.77-1.03l2.25-0.22l1.28-0.39l0.48-0.74l0.99-0.96l-0.19-0.9l-1.96,0.29L520,395.3l2.44-0.1
		l0.45-0.87l2.5-2.12l2.37-0.96l-0.45,1.64l2.44-0.19l0.87-0.71l1.76-0.61l3.18-0.8l2.37-0.19l1.38-0.51l-0.1-0.67l1.09-0.9
		l1.38,1.22l0.39-1.8l3.21,0.83l0.9-0.1l-0.42-0.96l0.51-0.74l1.35,0.48l1.51-1.09l1.22-1.35l1.89-0.29l1.12-0.96l0.67-1.06
		l1.38-0.13l2.34,0.51l2.47,0.03l1.41,0.06l2.02,0.32l1.51-0.51l0.99,0.16l2.37-0.03l2.6,0.51l1.22-0.26l1.83,0.32l-0.06,0.48
		l1.99,0.13l0.55-0.42l0.8,0.96l1.7,0.55l1.93-1.03l1.06,0.22l2.44-0.71l1.22-0.1l1.48-0.77l0.58-0.93l1.86-0.64l2.28,0.32
		l1.12-0.87l-1.54-0.93l-0.99-1.03l-0.64-1.09l-1.48-0.96l-0.83-1.28l3.05,0.35l-0.51,0.9l1.16,0.19l3.5-0.32l2.34-0.32l-1.38-1.38
		l-0.29-0.8l-2.05-0.83l-2.21-0.16l-1.06-0.55l-0.58,0.32l-1.73,0.16l-0.93-0.1l1.32-0.51l-0.8-0.42l-0.06-0.83l1.32-0.39l1.12,0.29
		l1.54-0.61l0.99,0.42l1.35,0.1l0.9-0.74l1.7-0.64l1.06-0.77l-1.03-0.9l0.39-0.83l-1.03-0.58l-1.22-0.93l-2.41-0.06l-0.96-0.67
		l0.51-0.48l0.13-0.87l-1.16-0.13l-1.99,0.35l-0.51-0.77l-0.61,0.45l-1.06-0.83l-1.09,0.45l-0.58-0.32l-2.18,0.32l1.06-0.8
		l0.51-1.03l1.54-0.39l0.48-0.22l2.92-0.55l1.12-0.42l2.5,0.16l2.41-0.39l2.12-0.06l2.5-0.19l-0.22-0.26l-3.66-0.22l-1.86,0.16
		l-2.21,0.16l-1.99,0.13l-1.35-0.22l-2.47,0.32l-0.77,0.58l-3.18,0.48l-0.55,0.58l-1.99,0.32l-2.09,0.55l-1.8,0.99l1.35,0.74
		l-2.63,1.06l-1.19,1.03l-2.15,0.93l-0.51-0.39l1.83-0.51l0.71-1.54l-0.29-0.87l-2.02,0.39l-1.54,0.55l-2.05,0.45l-0.96,0.16
		l0.55,1.03l-1.86,0.48l-2.25-0.48l-3.66-0.29l-2.41,0.48h-3.31l-1.83,0.03l-4.46-0.67l-2.37,0.1l-2.89,0.71l-1.8,0.39l-1.89-0.9
		l-3.24-0.22l-1.44-0.8l-2.02,0.19l-1.44-0.06l-0.64-0.48l-3.14,0.1l-1.28-0.61l-3.05,0.58l-0.45-0.61l-2.18-0.26l-4.2,1.19
		l-1.99,0.35l-5.26,1.19l-0.26,0.13l-1.83-0.13l-1.41-0.22l0.16-0.38l2.37-0.06l3.43-1.19l0.03-0.22l-1.22,0.03l-1.76-0.13
		l-2.05-0.42l-1.67-0.83l-0.22-0.67l-1.6,0.16l-1.06-0.1l-0.42-0.32l-1.89,0.51l-1.22,0.13l-2.82,0.9l-1.44,0.55l-0.16-0.03
		C517.86,352.52,545.77,346.14,575.16,346.14z M575.16,345.11c-37.33,0-72.27,10.16-102.49,27.6l-0.99,0.51l-2.02,1.12l-1.64,0.93
		l-1.57,0.96l-1.76,1.09l-0.96,0.64l1.32-0.8l1.06-0.58l0.96-0.55l0.06,0.03l-1.67,1.03c-1.36,0.86-2.8,1.61-4.14,2.5l1.96-1.32
		l0.1-0.06l0.35-0.26l-1.7,1.09l-0.39,0.26l-0.45,0.32l-0.67,0.42l-0.39,0.29l-0.06,0.03l-0.67,0.45l-0.42,0.29l-1.19,0.83
		l0.48-0.29l-1.96,1.44l-1.51,1.06l-0.9,0.74l-0.45,0.45c-1.32,0.97-2.65,1.92-3.95,2.92l0.26-0.22l1.16-0.93l1.16-0.93l1.76-1.38
		l2.05-1.51l-1.7,1.22l-1.38,0.99l-1.35,0.99l-1.93,1.48l-1.44,1.12l-0.29,0.29l-0.71,0.58l-1.57,1.28
		c-0.89,0.72-1.75,1.48-2.63,2.21c-0.28,0.23-0.56,0.47-0.83,0.71l-2.28,2.02l-3.02,2.79l-0.48,0.48
		c-5.24,4.81-10.23,9.86-14.95,15.18l-0.03,0.03l-1.44,1.48l-0.35,0.39l-0.93,1.06l-0.96,1.19l-0.16,0.16
		c-0.97,1.15-1.88,2.35-2.82,3.53l-0.38,0.45l-0.99,1.35l-1.19,1.6c-0.04,0.05-0.06,0.11-0.1,0.16l-2.09,2.7l-1.03,1.41l-0.13,0.19
		l-1.25,1.67c-3.43,4.82-6.61,9.81-9.63,14.92l-0.19,0.32c-13.47,22.95-22.76,48.6-26.47,76.08c-2.76,16.44-4.18,40.46,2.25,68.99
		c0.02,0.11,0.07,0.21,0.1,0.32c0.81,3.55,1.73,7.17,2.79,10.85c23.3,88.14,103.5,153.38,198.85,153.38
		c113.52,0,205.88-92.36,205.88-205.88C781.04,437.47,688.69,345.11,575.16,345.11z"/>
</g>
<g>
	<defs>
		<rect id="SVGID_00000175319355054091738770000012309366370611698588_" x="752.5" y="245.54" width="132.71" height="132.71"/>
	</defs>
	<clipPath id="SVGID_00000155145126647668327440000000731817584162267281_">
		<use xlink:href="#SVGID_00000175319355054091738770000012309366370611698588_"  style="overflow:visible;"/>
	</clipPath>
	<g style="clip-path:url(#SVGID_00000155145126647668327440000000731817584162267281_);">
		<defs>
			<rect id="SVGID_00000123405250292126691960000016591821096175211950_" width="1352.84" height="1137.22"/>
		</defs>
		<clipPath id="SVGID_00000057132237630650874340000008607084435655710911_">
			<use xlink:href="#SVGID_00000123405250292126691960000016591821096175211950_"  style="overflow:visible;"/>
		</clipPath>
		<path style="clip-path:url(#SVGID_00000057132237630650874340000008607084435655710911_);fill:#BFBFBF;" d="M870.96,344.55
			L851.5,364l13.26,13.26l19.45-19.44L870.96,344.55z M784.22,338.61l7.93,7.93l-9.1,3.91l-2.74-2.74L784.22,338.61z M855.59,329.18
			l-19.45,19.45l13.27,13.26l19.44-19.44L855.59,329.18z M840.22,313.82l-19.44,19.44l13.26,13.27l19.45-19.45L840.22,313.82z
			 M833.96,279l-4.35,11.4l-3.52-3.52l-33.87,33.87l4.7,4.7l-5.08,5.07c-6.51-4.45-13.86-5.82-19.35-3.63l10.33,10.33l-4.7,10.91
			l-6.92,6.92l4.51,4.51l6.92-6.92l10.91-4.7l10.33,10.33c2.18-5.49,0.82-12.84-3.63-19.35l5.07-5.08l4.7,4.71l33.87-33.88
			l-3.52-3.52l11.4-4.35L833.96,279z M803.68,277.27l-19.45,19.45l13.26,13.26l19.45-19.44L803.68,277.27z M788.31,261.91
			l-19.45,19.44l13.27,13.27l19.44-19.45L788.31,261.91z M772.94,246.54L753.5,266l13.26,13.26l19.45-19.45L772.94,246.54z"/>
	</g>
</g>
<g>
	<defs>
		<rect id="SVGID_00000090975389342781027060000017320896287166664378_" x="328.05" y="36" width="493.79" height="271.22"/>
	</defs>
	<clipPath id="SVGID_00000030445973103341591830000016538701018789697932_">
		<use xlink:href="#SVGID_00000090975389342781027060000017320896287166664378_"  style="overflow:visible;"/>
	</clipPath>
	<path style="clip-path:url(#SVGID_00000030445973103341591830000016538701018789697932_);fill:#002F63;" d="M454.99,170.25
		l119.95,39.65l119.87-39.61c15.34,19.27,25.13,42.66,30.66,67.66c-61.93,6.6-115.02,24.59-149.34,49.26
		c-34.77-24.99-88.79-43.14-151.76-49.53C429.92,212.76,439.7,189.45,454.99,170.25z M574.52,106.77c-9.22,0-16.67,2.75-16.67,6.15
		c0,3.39,7.46,6.15,16.67,6.15s16.71-2.75,16.71-6.15C591.24,109.53,583.74,106.77,574.52,106.77z M574.95,37l245.9,81.26
		l-245.9,81.3l-180.89-59.82v28.24c3.16,2.04,5.23,5.6,5.23,9.64c0,2.95-1.09,5.61-2.92,7.65c3.28,1.4,5.57,4.67,5.57,8.45v108.77
		c-3.51,2.29-8.5,3.73-14.1,3.73c-5.6,0-10.59-1.44-14.1-3.73v-109c0-3.74,2.27-6.95,5.49-8.34c-1.78-2.02-2.88-4.63-2.88-7.53
		c0-4.04,2.1-7.6,5.26-9.64v-32.35l-52.56-17.37L574.95,37z"/>
</g>
<g>
	<defs>
		
			<rect id="SVGID_00000134245003964780116360000008683388335872353943_" x="-1.45" y="759.32" transform="matrix(1 -3.584684e-03 3.584684e-03 1 -3.3059 2.0669)" width="1152.8" height="327.87"/>
	</defs>
	<clipPath id="SVGID_00000041978763168465662730000002044589164540616609_">
		<use xlink:href="#SVGID_00000134245003964780116360000008683388335872353943_"  style="overflow:visible;"/>
	</clipPath>
	<g style="clip-path:url(#SVGID_00000041978763168465662730000002044589164540616609_);">
		<defs>
			<rect id="SVGID_00000152255763781783921270000013890574166699537578_" x="-10.35" width="1352.84" height="1137.22"/>
		</defs>
		<clipPath id="SVGID_00000147179267576318437030000001405959655461569192_">
			<use xlink:href="#SVGID_00000152255763781783921270000013890574166699537578_"  style="overflow:visible;"/>
		</clipPath>
		<g style="clip-path:url(#SVGID_00000147179267576318437030000001405959655461569192_);">
			<text transform="matrix(1 -3.584708e-03 3.584708e-03 1 163.1977 1020.2929)" class="st9 st10 st11">European Spring School</text>
		</g>
	</g>
</g>
<g>
	<defs>
		<rect id="SVGID_00000090283708316710936600000005012871947907856294_" x="329.86" y="351.44" width="1022.98" height="785.77"/>
	</defs>
	<clipPath id="SVGID_00000039822668509481634230000017816185361801585309_">
		<use xlink:href="#SVGID_00000090283708316710936600000005012871947907856294_"  style="overflow:visible;"/>
	</clipPath>
	<g style="clip-path:url(#SVGID_00000039822668509481634230000017816185361801585309_);">
		<text transform="matrix(1 0 0 1 750.3463 837.8591)"><tspan x="0" y="0" class="st13 st14 st15 st16">2</tspan><tspan x="157.3" y="0" class="st13 st14 st15">4</tspan></text>
	</g>
</g>
<g>
	<defs>
		
			<rect id="SVGID_00000047058086837477581550000005293649742600661637_" x="94.92" y="796.83" transform="matrix(1 -3.584686e-03 3.584686e-03 1 -3.4397 2.4126)" width="1152.8" height="327.87"/>
	</defs>
	<clipPath id="SVGID_00000078727396928353899390000000217603061042065304_">
		<use xlink:href="#SVGID_00000047058086837477581550000005293649742600661637_"  style="overflow:visible;"/>
	</clipPath>
	<g style="clip-path:url(#SVGID_00000078727396928353899390000000217603061042065304_);">
		<defs>
			<rect id="SVGID_00000132049595904211995380000013936786944680091825_" x="86.37" y="-2.49" width="1352.84" height="1137.22"/>
		</defs>
		<clipPath id="SVGID_00000176034947023976013400000005464395648456594606_">
			<use xlink:href="#SVGID_00000132049595904211995380000013936786944680091825_"  style="overflow:visible;"/>
		</clipPath>
		<g style="clip-path:url(#SVGID_00000176034947023976013400000005464395648456594606_);">
			<text transform="matrix(1 -3.584708e-03 3.584708e-03 1 219.8464 926.708)" class="st19 st10 st11">Google Earth Engine</text>
		</g>
		<g style="clip-path:url(#SVGID_00000176034947023976013400000005464395648456594606_);">
			<text transform="matrix(1 -3.584708e-03 3.584708e-03 1 911.6838 924.228)" class="st20 st10"> </text>
		</g>
	</g>
</g>
</svg>
